<svg xmlns="http://www.w3.org/2000/svg" class="icon icon-tabler icon-tabler-database" stroke-width="2" stroke="currentColor" fill="none" stroke-linecap="round" stroke-linejoin="round" viewBox="0 0 24 24"><path stroke="none" d="M0 0h24v24H0z"/><ellipse cx="12" cy="5.018" rx="7.983" ry="3.335" stroke-width="2.107"/><path d="M4.017 5.018v6.671M4.017 11.689v6.67a7.983 3.335 0 0015.966 0v-6.67" stroke-width="2.107"/><path d="M19.983 11.689V4.99" stroke="#000" stroke-width="2.107" stroke-linecap="butt"/><path d="M3.992 18.788s3-3.28 9.177-2.746c6.178.534 6.84 3 6.763 2.568" stroke="#000" stroke-width=".9" stroke-linecap="butt" opacity=".07"/><path d="M9.13 7.002C7.283 6.676 5.636 5.947 5.242 5.28c-.14-.237-.14-.29.002-.524C5.612 4.15 6.9 3.528 8.63 3.123c1.115-.26 4.358-.372 5.61-.193 1.955.28 3.846.985 4.396 1.639.331.394.331.51 0 .905-.536.636-2.474 1.36-4.362 1.628-1.181.168-3.923.115-5.142-.1zM5.07 12.695c0-2.57.016-4.674.036-4.674.02 0 .34.137.708.305 2.641 1.197 7.139 1.46 10.493.614.615-.155 1.45-.423 1.856-.596l.737-.314v9.104l-.686-.33c-.832-.4-2.068-.765-3.433-1.013-1.422-.26-4.439-.262-5.62-.006-1.197.26-2.47.709-3.34 1.179l-.751.405z" opacity=".07" fill="#fff" stroke-width=".092"/><path d="M10.463 20.523c-1.32-.124-2.452-.365-3.37-.717-1.209-.464-2.06-1.106-1.87-1.412.107-.175 1.298-.827 2.072-1.134 1.333-.53 2.259-.706 4.029-.766 1.844-.062 3.405.107 4.908.531 1.054.298 2.603 1.047 2.647 1.28.083.442-1.161 1.28-2.521 1.695-1.536.47-4.076.695-5.895.523z" opacity=".07" fill="#fff" stroke-width=".092"/></svg>